#!OML:ASF F:\VICON\USERDATA\INSTALL\rory3\rory3.ASF
:FULLY-SPECIFIED
:DEGREES
150
root -0.034700027496056926 17.298187722345368 67.7440336696135 1.445434642646135 -0.5960433062877357 -0.696734614477504
lfemur -16.33363571637308 -2.085992000127646 -20.698660558450765
ltibia 37.460194307397714
lfoot 11.346488325881975 -10.740598259175274
ltoes -0.5887865764391265
rfemur -14.786889646974485 4.065828100203005 26.42918242746346
rtibia 44.839519068060085
rfoot 1.5013916738473516 0.024332386471532352
rtoes 12.608539566198854
lowerback 12.30945085535993 0.24857679876489502 0.15404340568293784
upperback -0.599266093840067 0.41319920901644347 1.6485229261578316
thorax -7.415314922982017 0.2503977141588892 2.4534313934061607
lowerneck -17.617094145665078 -2.7743037005737565 -3.8411885396203647
upperneck 18.67508354584831 -3.147253694112811 2.160175054574088
head 8.746815937582546 -1.4636203986975904 0.9980659011349912
lclavicle -2.2642767889587758e-15 6.829075144075821e-16
lhumerus -44.67037790815421 -6.838242224102112 90.72082602374122
lradius 66.00121880726562
lwrist 18.894875016147832
lhand -27.633597569404508 12.95151290096554
lfingers 7.125019999999999
lthumb -1.0805485957412175 42.81208383378415
rclavicle -2.2620192661351753e-15 6.845087922542144e-16
rhumerus -39.06583751718073 -7.4445204140809205 -86.76916465436275
rradius 58.542868948637675
rwrist 0.8372780410002663
rhand -16.931577903659733 30.489243978442104
rfingers 7.125019999999999
rthumb 8.313775785080683 0.8780975665851085
151
root -0.04783276906597751 17.30156751983136 67.69433190153391 1.5646140099635857 -0.7633692942296686 -0.9646584786527854
lfemur -15.5191362496111 -2.1976192119869937 -20.427980427861257
ltibia 37.12652932909021
lfoot 12.022943848596096 -10.010250303116205
ltoes -0.4156779799373762
rfemur -15.886754796454115 3.92328496330949 26.42639541500291
rtibia 46.415724468392966
rfoot 3.601836765700355 0.08982577347336651
rtoes 13.209433975432681
lowerback 12.364970184177805 0.2359440634673321 0.3303283968800186
upperback -0.5365711759654825 0.41777303422776246 1.676174361431187
thorax -7.451524295312102 0.24088728202988546 2.33880408697212
lowerneck -17.62501147867256 -2.802909230376854 -3.792857217174417
upperneck 18.6960157166055 -3.2001378369951707 2.2024137969080484
head 8.761204727754608 -1.485761717237211 1.0000882741922585
lclavicle -2.264061756421877e-15 6.830581711348834e-16
lhumerus -45.09427332896466 -6.376153736896036 90.59375008748722
lradius 64.64117059908082
lwrist 18.278565484457612
lhand -27.278596369574267 13.142776806326156
lfingers 7.125019999999999
lthumb -0.7815311819902033 42.88781911118997
rclavicle -2.2613873169589234e-15 6.849518610662739e-16
rhumerus -38.70476065488174 -7.266691951805713 -87.10909953411628
rradius 58.55016392119875
rwrist 0.49964328898269583
rhand -16.934007915024583 30.456663030288066
rfingers 7.125019999999999
rthumb 8.328651025704627 0.921251805310103
152
root -0.05706172925935567 17.334827130083365 67.55088575447195 1.6433197252800262 -0.9637781460057442 -1.1215731530398632
lfemur -14.82782419073773 -2.326172015450146 -20.3007096336947
ltibia 36.87355558818672
lfoot 13.252506060898758 -9.453940700117693
ltoes 0.04889764573972766
rfemur -16.801442440341727 3.8869249368540575 26.407423920168206
rtibia 47.245731565544766
rfoot 5.613148921018344 -0.4804009541606442
rtoes 13.377022783194011
lowerback 12.376820852472735 0.22671674248729368 0.4720935035518794
upperback -0.4731503994033814 0.4063138152470328 1.701411552920952
thorax -7.490434722939553 0.2390067561155939 2.280991521172611
lowerneck -17.642489001284105 -2.83120105861376 -3.7535903155156776
upperneck 18.716719535557957 -3.2511594615734625 2.2463569905999967
head 8.787788162206967 -1.5044561182069396 1.0048288818161806
lclavicle -2.2631921410129558e-15 6.836663557865369e-16
lhumerus -45.289230624955756 -5.98604931696522 90.41319666205405
lradius 63.57024808495322
lwrist 17.731988992301247
lhand -26.91501164177273 13.06893607810949
lfingers 7.125019999999999
lthumb -0.4472101780438476 42.86772512740828
rclavicle -2.2611775181282006e-15 6.850988877989553e-16
rhumerus -38.31611422124316 -6.975345624339079 -87.38609346407239
rradius 58.601491652323986
rwrist 0.11777603010786297
rhand -16.853950879600603 30.50389078810199
rfingers 7.125019999999999
rthumb 8.394180932932981 1.018626700853991
153
root -0.06778489989420476 17.369724770023502 67.3843853297104 1.7763106337929826 -1.272851189428673 -0.9964198854840767
lfemur -14.044280397536816 -2.351795002827279 -20.475267683461073
ltibia 36.72349983338093
lfoot 14.42382401644531 -9.238830476973103
ltoes -0.07037561112247559
rfemur -17.945722973001548 4.012527458322604 26.142277996423903
rtibia 47.626953356624966
rfoot 7.002450087331988 -1.4389185312025878
rtoes 13.65988565190752
lowerback 12.303879878108898 0.2666481683186695 0.31530435933195156
upperback -0.44859555158890985 0.4152452887601885 1.6513540946239214
thorax -7.492245652741878 0.25011842608666895 2.3330015333307808
lowerneck -17.675057163687878 -2.8374104604115016 -3.6937144237919632
upperneck 18.709637433982753 -3.2690926225509873 2.2694408722390143
head 8.794959933761277 -1.5052754587318615 1.0086486223305817
lclavicle -2.2633738572781203e-15 6.835404569973442e-16
lhumerus -45.36680590201245 -5.686573727630306 90.20940093144328
lradius 62.702835299718444
lwrist 17.43366990474502
lhand -26.492041353682165 13.08700286389463
lfingers 7.125019999999999
lthumb -0.06165298011973391 42.93675025796507
rclavicle -2.2606741412496158e-15 6.854517436525487e-16
rhumerus -38.09236723187324 -6.632513332698714 -87.6370173488473
rradius 58.79176669863679
rwrist -0.21866854620831688
rhand -16.73951411450697 30.529216245353314
rfingers 7.125019999999999
rthumb 8.48024653943524 1.1116384408633295
